<?xml version="1.0" standalone="no"?>
<!DOCTYPE svg PUBLIC "-//W3C//DTD SVG 20010904//EN"
 "http://www.w3.org/TR/2001/REC-SVG-20010904/DTD/svg10.dtd">
<svg version="1.0" xmlns="http://www.w3.org/2000/svg"
 width="735.000000pt" height="980.000000pt" viewBox="0 0 735.000000 980.000000"
 preserveAspectRatio="xMidYMid meet">

<g transform="translate(0.000000,980.000000) scale(0.100000,-0.100000)"
fill="#000000" stroke="none">
<path d="M1417 9777 l-38 -9 5 -462 c5 -478 9 -576 28 -613 17 -34 4 -51 -46
-58 l-45 -7 -3 -178 -3 -178 -30 -26 c-16 -14 -35 -26 -41 -26 -17 0 -71 -29
-84 -45 -7 -8 -16 -45 -20 -82 -4 -38 -13 -87 -19 -110 -11 -41 -13 -43 -63
-49 -41 -6 -58 -14 -82 -41 -17 -18 -38 -33 -47 -33 -28 0 -66 -38 -94 -93
-23 -43 -28 -69 -32 -153 -4 -79 -2 -107 10 -130 22 -43 9 -61 -36 -47 l-34
10 -22 -116 c-12 -64 -27 -143 -33 -176 -6 -33 -14 -64 -18 -70 -27 -36 -27
-168 -1 -295 6 -30 15 -77 21 -103 5 -27 16 -63 24 -80 8 -18 17 -63 20 -102
2 -38 9 -93 15 -121 11 -58 80 -224 93 -224 4 0 8 -11 8 -24 0 -14 5 -28 10
-31 6 -3 10 -15 10 -26 0 -10 5 -19 10 -19 6 0 10 -11 10 -25 0 -18 18 -43 59
-83 100 -97 224 -207 261 -232 19 -13 37 -27 40 -31 12 -17 149 -31 246 -26
97 4 106 7 163 42 34 21 63 36 65 34 3 -2 7 -33 10 -69 10 -100 25 -132 72
-150 16 -6 25 -25 38 -74 9 -36 16 -79 16 -96 0 -17 4 -50 9 -73 5 -23 15 -76
21 -117 40 -253 52 -276 153 -309 22 -8 37 -19 37 -28 0 -9 -24 -66 -54 -127
-73 -150 -96 -203 -96 -220 0 -8 -5 -16 -10 -18 -20 -6 -40 -87 -34 -129 5
-28 2 -45 -8 -57 -8 -9 -20 -39 -26 -67 -11 -44 -10 -59 8 -125 12 -41 25 -89
29 -105 4 -17 7 -192 6 -390 -2 -198 2 -462 8 -587 9 -200 12 -228 27 -228 9
0 21 5 28 12 6 6 14 9 18 5 3 -3 13 -66 20 -139 8 -73 21 -159 29 -191 8 -33
13 -63 9 -68 -3 -5 -27 -9 -53 -9 l-49 0 -7 -74 c-4 -47 -3 -82 4 -95 18 -32
13 -51 -11 -51 -18 0 -27 -11 -41 -45 -20 -48 -21 -77 -12 -313 6 -142 8 -156
36 -211 16 -33 29 -63 29 -66 0 -7 53 -134 72 -172 6 -13 19 -25 28 -28 9 -3
24 -25 34 -49 10 -24 34 -65 54 -92 21 -27 43 -61 51 -77 8 -15 20 -27 26 -27
7 0 18 -6 24 -14 6 -7 29 -16 50 -20 37 -6 39 -8 55 -64 9 -32 16 -73 16 -90
l0 -32 485 0 c525 0 515 -1 482 52 -18 28 -32 90 -52 228 -21 143 -31 176 -70
240 -44 73 -51 116 -30 180 13 40 16 68 10 124 -6 72 -6 72 -43 86 -20 7 -54
24 -75 38 -30 20 -37 30 -33 47 16 65 27 182 24 273 -2 84 0 105 12 112 8 5
35 22 59 38 l44 30 -2 64 c-1 34 5 104 12 153 16 100 56 255 66 255 3 -1 19
-22 36 -48 16 -26 53 -72 82 -103 51 -54 53 -57 68 -150 8 -51 22 -151 30
-221 17 -150 33 -192 104 -270 l52 -57 30 -147 c16 -80 37 -163 45 -183 8 -20
31 -97 51 -171 32 -119 36 -150 37 -260 l1 -126 41 -79 c23 -44 39 -86 37 -92
-4 -10 113 -13 562 -13 513 0 567 2 561 16 -3 9 -6 24 -6 33 0 10 -9 29 -21
42 -32 36 -74 99 -98 146 -29 57 -67 257 -81 428 -10 117 -19 163 -57 285 -58
188 -76 314 -67 490 l6 136 -60 179 c-33 99 -79 222 -101 273 -23 51 -41 99
-41 107 0 7 -5 15 -10 17 -6 2 -14 50 -17 110 -6 102 -5 106 15 112 65 21 128
154 139 292 5 68 5 72 -17 79 -12 4 -51 36 -86 72 -54 55 -64 71 -64 100 0 20
-12 68 -26 107 -22 59 -28 99 -35 236 -6 90 -11 166 -13 168 -2 2 6 21 18 42
21 38 22 43 10 127 -28 197 -13 352 52 512 43 107 61 127 49 55 -4 -27 -7 -56
-7 -64 1 -8 4 -82 7 -165 5 -121 4 -160 -9 -200 -12 -40 -13 -51 -2 -57 7 -4
27 -39 45 -78 41 -88 49 -161 27 -254 -16 -66 -16 -70 3 -90 31 -35 40 -60 67
-193 25 -122 44 -278 43 -353 -1 -66 13 -151 27 -164 11 -12 11 -15 -3 -20
-13 -5 -15 -16 -10 -58 8 -60 12 -66 37 -50 11 7 30 12 42 12 27 0 201 84 218
106 7 8 18 14 24 14 15 0 56 42 56 57 0 6 7 16 15 23 19 16 45 68 45 90 0 9 9
25 20 35 17 15 20 31 20 91 0 40 4 76 10 79 6 3 10 17 10 30 0 13 4 27 10 30
15 9 12 41 -5 55 -19 16 -45 68 -45 91 0 10 -4 21 -10 24 -5 3 -10 24 -10 45
0 33 4 41 28 52 20 10 28 21 30 48 2 19 8 39 13 45 5 5 9 24 9 41 0 18 4 36
10 39 6 3 10 19 10 35 0 16 9 45 20 65 11 20 20 44 20 55 0 10 5 22 10 25 6 3
10 15 10 26 0 10 5 19 10 19 6 0 10 71 10 194 0 119 4 197 10 201 6 3 10 35
10 70 0 35 4 67 10 70 6 3 10 48 10 100 0 52 4 97 10 100 13 8 13 185 0 185
-5 0 -10 14 -10 30 0 17 -4 30 -10 30 -5 0 -10 14 -10 30 0 17 -4 30 -10 30
-5 0 -10 13 -10 29 0 17 -4 33 -10 36 -5 3 -10 21 -10 40 0 19 -4 37 -10 40
-5 3 -10 21 -10 40 0 19 -4 37 -10 40 -5 3 -10 41 -10 85 0 67 -4 86 -30 135
-16 31 -30 66 -30 76 0 10 -4 19 -10 19 -5 0 -10 9 -10 20 0 11 -4 20 -10 20
-5 0 -10 9 -10 20 0 11 -4 20 -10 20 -5 0 -10 6 -10 13 0 8 -22 58 -50 112
-28 54 -50 104 -50 111 0 8 -9 29 -20 49 -11 20 -20 46 -20 59 0 27 -35 100
-62 130 -16 18 -23 37 -19 59 0 4 -8 7 -19 7 -20 0 -26 -11 -13 -24 14 -13 13
-46 -1 -46 -8 0 -22 -3 -30 -6 -12 -5 -20 4 -32 32 -9 22 -18 41 -20 43 -5 5
-64 -56 -63 -65 1 -16 -66 -75 -91 -80 -44 -9 -38 9 25 79 30 33 53 62 51 65
-3 2 -30 -6 -62 -17 -38 -15 -60 -19 -67 -12 -18 18 177 92 202 77 4 -3 18
-27 31 -55 36 -78 68 -66 35 12 -8 20 -15 41 -15 47 0 5 7 10 15 10 20 0 19 9
-3 29 -22 21 -37 53 -56 122 -9 32 -31 80 -50 108 -32 47 -35 59 -42 155 -4
72 -3 124 7 170 14 73 2 116 -33 116 -10 0 -18 5 -18 10 0 6 -8 10 -17 10 -9
0 -25 8 -36 17 -10 10 -67 39 -126 64 l-106 45 3 40 c5 57 -36 108 -132 164
-73 43 -76 46 -71 75 3 17 9 53 12 80 8 74 -10 48 -48 -70 -43 -128 -47 -96
-11 73 26 120 27 134 13 142 -9 5 -11 10 -6 10 6 1 -10 9 -34 18 -35 13 -47
24 -57 52 -12 34 -13 34 -13 8 -1 -30 -20 -39 -22 -10 0 10 -3 12 -6 5 -6 -17
-31 -16 -83 2 -37 13 -45 13 -71 0 -28 -15 -30 -15 -60 20 -24 27 -39 35 -65
35 -37 0 -39 5 -24 62 6 22 19 39 30 43 36 11 68 63 86 139 17 72 17 78 -1
158 -21 95 -38 127 -95 183 -23 22 -58 64 -78 94 -20 30 -49 61 -64 70 -17 10
-28 24 -28 39 0 12 0 24 0 27 0 2 -26 28 -58 57 -31 29 -61 58 -67 64 -17 18
-65 45 -87 49 -11 3 -29 12 -39 21 -10 9 -23 14 -30 12 -18 -6 66 -94 96 -102
13 -3 30 -16 36 -27 10 -20 9 -21 -16 -15 -70 18 -85 19 -85 5 0 -11 -2 -11
-8 -2 -6 10 -22 10 -72 -1 -36 -8 -53 -15 -37 -15 38 -1 34 -16 -10 -34 l-38
-15 50 4 c37 3 27 -1 -40 -16 -49 -11 -115 -25 -145 -30 -30 -6 -65 -15 -77
-20 -18 -8 -23 -6 -23 6 0 15 -17 -6 -109 -137 -46 -65 -76 -80 -146 -74 -40
3 -53 0 -68 -15 -10 -12 -31 -20 -49 -20 -30 0 -30 -1 -24 -37 3 -21 6 -57 6
-80 l0 -43 39 0 c37 0 59 -19 47 -39 -3 -4 8 -6 23 -3 16 2 32 -1 35 -7 4 -6
0 -11 -9 -11 -13 0 -15 -5 -10 -17 17 -39 17 -70 1 -76 -9 -4 -16 -2 -16 2 0
5 -9 7 -20 4 -16 -4 -20 -14 -20 -50 0 -34 10 -64 41 -120 51 -93 48 -111 -22
-138 -28 -11 -53 -23 -56 -28 -2 -4 6 -21 18 -39 22 -30 22 -32 4 -42 -87 -50
-117 -125 -113 -275 2 -49 6 -87 11 -84 14 9 7 -15 -14 -41 -11 -14 -28 -26
-37 -26 -15 0 -15 2 -2 10 8 5 11 10 7 10 -4 0 -21 -10 -37 -22 -34 -25 -40
-22 -46 24 -3 18 -13 39 -21 45 -14 11 -13 14 8 23 19 8 9 9 -46 6 -38 -2 -77
-6 -85 -8 -8 -3 -12 -3 -8 -1 4 2 5 10 2 18 -7 17 72 69 92 61 7 -3 16 -1 19
4 10 17 -14 20 -60 9 -34 -9 -49 -18 -56 -35 -4 -13 -13 -24 -18 -24 -6 0 -13
-15 -17 -34 -3 -19 -12 -37 -20 -40 -8 -3 -14 -12 -14 -20 0 -19 70 -15 102 6
35 22 57 28 63 17 7 -10 -94 -59 -123 -59 -38 0 -55 -48 -31 -91 6 -12 8 -27
5 -34 -7 -20 -76 -1 -98 27 -16 20 -18 21 -12 3 6 -20 6 -20 -10 0 -12 14 -15
32 -11 69 3 27 9 54 12 59 4 6 -5 2 -19 -9 -14 -10 -30 -34 -34 -53 -7 -28
-15 -37 -43 -44 -44 -11 -200 -132 -212 -165 -7 -18 -5 -31 6 -48 18 -28 19
-47 4 -131 -10 -57 -13 -63 -36 -63 -39 0 -61 -17 -94 -75 -41 -72 -54 -83
-69 -53 -7 13 -33 56 -59 95 -35 55 -51 73 -69 73 -12 0 -25 7 -28 15 -8 20
13 79 36 100 27 24 25 33 -5 37 l-25 3 37 63 c40 67 63 80 63 33 0 -25 3 -28
25 -23 25 4 28 12 29 77 1 24 7 31 31 38 73 21 80 29 79 82 -2 45 -14 986 -14
1028 0 10 -8 17 -19 17 -17 0 -18 3 -8 25 7 13 21 26 32 27 20 3 20 9 16 538
-2 294 -6 538 -10 541 -11 12 -115 15 -154 6z m1633 -822 c0 -3 -16 -12 -37
-20 -47 -20 -39 -27 16 -14 52 12 123 3 148 -18 17 -14 17 -14 -2 -8 -35 13
-134 14 -167 3 -42 -14 -113 -67 -129 -95 -15 -27 -31 -31 -22 -5 9 25 33 51
78 85 22 16 32 27 23 24 -32 -11 -19 7 20 29 35 20 72 30 72 19z m46 -99 c8
-8 14 -19 14 -25 0 -16 38 -33 42 -20 7 22 48 -1 48 -27 0 -28 -30 -33 -50 -9
-19 23 -33 18 -60 -23 -35 -52 -35 -52 -1 -52 17 0 31 -4 31 -10 0 -5 14 -10
31 -10 34 0 69 -15 69 -30 0 -17 -67 -11 -74 6 -5 12 -9 14 -20 5 -21 -18 -95
-25 -111 -11 -10 8 -19 9 -27 3 -7 -6 -27 -13 -44 -16 -26 -5 -33 -2 -44 18
-10 19 -16 22 -27 14 -11 -9 -12 -5 -7 22 17 85 79 155 152 170 56 10 62 10
78 -5z m384 -20 c0 -8 -31 -131 -37 -146 -4 -10 -9 -2 -14 20 -12 57 8 130 36
130 8 0 15 -2 15 -4z m114 -61 c6 -17 -2 -45 -14 -45 -13 0 -70 34 -70 42 0
19 76 22 84 3z m-851 -12 c-7 -2 -19 -2 -25 0 -7 3 -2 5 12 5 14 0 19 -2 13
-5z m577 -95 c0 -9 -4 -20 -10 -23 -6 -4 -10 9 -10 32 0 28 3 34 10 23 5 -8
10 -23 10 -32z m285 -30 c6 -6 5 -12 -5 -18 -21 -13 -26 -12 -45 7 -14 13 -21
14 -36 5 -15 -10 -19 -9 -19 1 0 8 3 17 7 20 8 9 85 -3 98 -15z m-325 -78 c-6
-12 -14 -19 -17 -17 -2 3 1 15 7 27 6 12 14 19 17 17 2 -3 -1 -15 -7 -27z
m124 -32 c6 -49 4 -64 -7 -73 -25 -17 -140 -103 -177 -131 -19 -14 6 14 57 63
l92 90 -4 48 c-4 53 -1 65 19 65 9 0 16 -21 20 -62z m-379 -88 c3 -6 -1 -7 -9
-4 -18 7 -21 14 -7 14 6 0 13 -4 16 -10z m315 -105 c0 -2 -17 -14 -37 -25 -21
-11 -48 -27 -60 -36 -14 -10 -23 -12 -23 -5 0 12 88 71 108 71 6 0 12 -2 12
-5z m-2033 -210 c-1 -66 -6 -95 -14 -95 -7 0 -15 17 -18 38 -3 20 -11 55 -16
77 -10 35 -9 41 11 57 12 10 26 18 31 18 5 0 8 -43 6 -95z m1723 60 c0 -15 -7
-39 -15 -56 l-16 -29 -29 22 c-17 12 -30 24 -30 27 1 7 72 60 83 61 4 0 7 -11
7 -25z m-64 -78 c15 -13 23 -26 18 -29 -5 -4 -24 7 -42 23 -39 35 -16 40 24 6z
m-28 -30 c6 -5 12 -12 12 -18 0 -16 -26 -10 -45 11 -18 20 -18 20 1 17 10 -1
25 -6 32 -10z m-1624 -99 c-1 -34 -14 -68 -25 -68 -9 0 -11 10 -11 50 0 36 2
40 20 40 12 0 17 -7 16 -22z m1383 -115 c9 -21 22 -41 27 -45 7 -5 7 -8 -1 -8
-15 0 -53 36 -53 49 0 5 -3 16 -6 25 -13 33 16 14 33 -21z m-431 -210 c-6 -28
-22 -50 -31 -41 -8 7 15 68 26 68 5 0 7 -12 5 -27z m1721 -5 c-3 -7 -5 -2 -5
12 0 14 2 19 5 13 2 -7 2 -19 0 -25z m-67 -9 c9 -6 -4 -8 -37 -6 -33 1 -53 7
-53 14 0 13 63 7 90 -8z m-1725 -49 c-3 -5 -1 -10 5 -10 6 0 9 -4 6 -9 -3 -5
-22 -9 -41 -8 l-34 1 27 18 c30 20 47 23 37 8z m142 -7 c-9 -9 -19 -14 -23
-11 -10 10 6 28 24 28 15 0 15 -1 -1 -17z m193 -58 c23 -48 42 -72 71 -90 35
-23 39 -30 40 -68 0 -23 2 -55 3 -72 1 -16 3 -97 4 -179 1 -82 4 -147 7 -144
3 2 6 17 7 31 2 22 7 27 28 27 14 0 20 -4 14 -8 -6 -4 -14 -36 -18 -72 -7 -68
-25 -107 -27 -54 0 16 -4 38 -9 49 -7 16 -9 13 -9 -17 -1 -21 -6 -38 -12 -38
-5 0 -7 5 -4 10 3 6 -1 13 -10 16 -18 7 -39 50 -36 74 1 11 -3 10 -14 -4 -8
-11 -15 -14 -15 -8 0 20 -25 13 -50 -13 -28 -30 -42 -28 -47 6 -4 26 -35 56
-70 65 -24 6 -40 34 -19 34 7 0 37 -8 67 -18 86 -30 116 -33 134 -16 8 9 15
11 15 5 0 -6 11 -11 23 -11 24 0 24 2 19 78 -5 89 -17 112 -27 53 -11 -68 -22
-47 -24 47 -1 48 -4 107 -7 132 -7 50 -61 190 -74 190 -5 0 -18 -20 -30 -45
-24 -49 -44 -61 -34 -20 5 20 3 24 -10 19 -9 -3 -16 -9 -17 -13 0 -3 -2 -22
-3 -41 -2 -19 -8 -53 -14 -75 -9 -35 -25 -137 -27 -172 -1 -23 -16 -27 -22 -5
-3 12 -9 22 -12 22 -11 0 -12 103 -2 155 5 25 5 45 0 45 -12 0 -22 -20 -25
-49 -10 -99 -23 -193 -28 -198 -3 -4 -6 1 -6 10 0 9 -6 17 -14 17 -8 0 -15 8
-15 18 0 9 -3 29 -7 45 -5 21 -3 27 10 27 9 0 16 5 16 10 0 6 -4 10 -10 10
-17 0 -11 21 13 41 l22 19 -35 -7 c-19 -3 -37 -7 -39 -9 -2 -2 -6 -29 -9 -59
-2 -31 -9 -58 -15 -62 -6 -4 -8 10 -5 41 7 62 -8 68 -49 21 -21 -24 -33 -32
-33 -22 0 8 -6 18 -12 20 -10 4 -10 8 1 15 17 13 1 21 -23 12 -12 -4 -16 -9
-9 -13 12 -8 -9 -61 -28 -72 -13 -8 -11 55 2 94 10 29 14 31 58 31 26 0 51 -4
57 -10 14 -14 81 20 137 68 27 23 52 42 56 42 5 0 36 27 70 61 48 46 65 58 75
50 11 -9 12 -6 8 14 -8 47 17 25 48 -40z m-430 35 c9 -16 8 -20 -5 -20 -8 0
-15 2 -15 4 0 2 -3 11 -6 20 -9 23 13 20 26 -4z m920 -35 c-8 -10 -30 -15 -61
-15 -68 0 -61 18 9 23 31 2 59 4 61 5 2 1 -2 -5 -9 -13z m-1117 -41 c-2 -6 5
-28 16 -48 19 -33 19 -40 -1 -37 -5 0 -8 -42 -8 -94 l0 -95 39 -6 40 -6 -21
-28 c-16 -22 -19 -35 -13 -57 5 -15 7 -32 6 -37 -2 -7 20 -61 37 -90 7 -13
-49 24 -83 55 -16 14 -37 29 -45 32 -8 3 -3 6 12 6 18 1 26 5 22 14 -3 8 0 25
5 40 7 19 6 28 -4 37 -11 9 -16 4 -26 -30 -9 -28 -15 -37 -21 -28 -7 10 -11
10 -21 -3 -10 -13 -12 17 -11 151 0 158 2 169 24 206 36 58 44 65 51 45 3 -9
4 -21 2 -27z m1447 6 c0 -5 -4 -10 -10 -10 -5 0 -10 -6 -10 -14 0 -8 -4 -16
-8 -18 -4 -1 -25 -32 -45 -68 -44 -77 -65 -106 -72 -98 -6 6 87 170 113 201
17 19 32 22 32 7z m-1335 -28 c-3 -3 -11 0 -18 7 -9 10 -8 11 6 5 10 -3 15 -9
12 -12z m1343 -42 c-33 -50 -62 -72 -33 -25 8 14 22 36 30 50 9 14 20 25 25
25 6 0 -5 -22 -22 -50z m1222 35 c0 -9 -6 -12 -15 -9 -8 4 -12 10 -9 15 8 14
24 10 24 -6z m-1740 1 c0 -3 -4 -8 -10 -11 -5 -3 -10 -1 -10 4 0 6 5 11 10 11
6 0 10 -2 10 -4z m-7 -33 c-7 -2 -19 -2 -25 0 -7 3 -2 5 12 5 14 0 19 -2 13
-5z m1734 -17 c-3 -8 -1 -16 5 -18 5 -2 2 -10 -8 -18 -14 -12 -16 -12 -9 -1 5
10 4 12 -3 7 -7 -4 -12 -3 -12 3 0 18 12 41 22 41 6 0 8 -6 5 -14z m-69 -20
c60 -30 99 -62 89 -72 -4 -4 -17 2 -30 13 -12 12 -46 33 -74 47 -29 15 -53 29
-53 31 0 10 22 4 68 -19z m-1665 7 c-7 -2 -19 -2 -25 0 -7 3 -2 5 12 5 14 0
19 -2 13 -5z m206 -19 c2 -2 -14 -3 -37 -2 -23 1 -39 5 -36 9 4 8 63 1 73 -7z
m-79 -44 c0 -5 -4 -10 -9 -10 -6 0 -13 5 -16 10 -3 6 1 10 9 10 9 0 16 -4 16
-10z m41 -23 c-16 -16 -26 0 -10 19 9 11 15 12 17 4 2 -6 -1 -17 -7 -23z
m-1015 -43 c-4 -18 -11 -34 -16 -34 -13 0 -12 20 2 61 14 40 23 23 14 -27z
m844 -64 c0 -5 -7 -10 -15 -10 -8 0 -15 5 -15 10 0 6 7 10 15 10 8 0 15 -4 15
-10z m-653 -32 c-3 -7 -5 -2 -5 12 0 14 2 19 5 13 2 -7 2 -19 0 -25z m1870 -4
c-3 -3 -12 -4 -19 -1 -8 3 -5 6 6 6 11 1 17 -2 13 -5z m-260 -25 c-22 -11 -41
-18 -44 -16 -6 7 48 36 67 36 8 0 -2 -9 -23 -20z m-1550 -21 c-3 -8 -6 -5 -6
6 -1 11 2 17 5 13 3 -3 4 -12 1 -19z m-60 -10 c-3 -8 -6 -5 -6 6 -1 11 2 17 5
13 3 -3 4 -12 1 -19z m653 12 c0 -5 -5 -10 -11 -10 -5 0 -7 5 -4 10 3 6 8 10
11 10 2 0 4 -4 4 -10z m900 -5 c0 -2 -10 -9 -22 -15 -22 -11 -22 -10 -4 4 21
17 26 19 26 11z m135 -5 c-3 -5 -11 -10 -16 -10 -6 0 -7 5 -4 10 3 6 11 10 16
10 6 0 7 -4 4 -10z m-1600 -57 c-2 -32 -4 -75 -5 -95 0 -27 -4 -38 -15 -38
-12 0 -12 5 -5 26 9 22 8 25 -5 20 -8 -3 -15 -1 -15 5 0 5 7 12 15 15 20 8 19
34 -2 34 -15 0 -15 2 0 18 8 9 19 29 22 45 11 43 15 32 10 -30z m325 45 c0 -7
-5 -20 -10 -28 -8 -12 -10 -9 -10 13 0 15 5 27 10 27 6 0 10 -6 10 -12z m179
-15 c-1 -16 -5 -39 -9 -53 -6 -20 -8 -14 -9 28 -1 28 3 52 9 52 6 0 10 -12 9
-27z m199 2 c13 -14 17 -25 10 -25 -22 0 30 -43 53 -44 38 -2 35 -26 -3 -26
-42 0 -85 40 -94 88 -8 39 5 41 34 7z m-143 -5 c-3 -5 -12 -10 -18 -10 -7 0
-6 4 3 10 19 12 23 12 15 0z m-654 -87 c-4 -94 -11 -93 -11 2 0 43 3 75 7 72
3 -4 5 -37 4 -74z m-319 27 c-2 -22 -8 -40 -13 -40 -10 0 -11 25 -3 58 10 36
20 25 16 -18z m1538 -5 c-71 -27 -97 -30 -120 -15 -11 7 -6 10 20 11 19 0 53
6 75 14 72 24 93 15 25 -10z m420 4 c0 -6 -4 -7 -10 -4 -5 3 -10 11 -10 16 0
6 5 7 10 4 6 -3 10 -11 10 -16z m-1047 -119 c13 -1 -22 -30 -35 -30 -12 0 -10
37 5 84 l12 41 3 -47 c2 -29 8 -48 15 -48z m37 30 c0 -5 -5 -10 -11 -10 -5 0
-7 5 -4 10 3 6 8 10 11 10 2 0 4 -4 4 -10z m-324 -17 c0 -9 10 -23 24 -30 24
-12 23 -13 -20 -13 -50 0 -90 9 -90 19 0 8 59 39 76 40 7 1 11 -7 10 -16z
m807 1 c3 -3 1 -19 -5 -36 -13 -36 -34 -22 -24 16 6 25 16 32 29 20z m467 -28
c-5 -15 -17 -29 -25 -33 -9 -3 -14 -12 -11 -20 8 -20 -42 -42 -54 -23 -4 7
-17 11 -29 7 -12 -3 -21 -1 -21 4 0 5 4 9 9 9 5 0 31 17 58 38 44 36 74 53 81
47 1 -1 -2 -14 -8 -29z m894 -12 c31 -14 56 -29 56 -34 0 -9 -153 -60 -178
-60 -28 0 -9 20 36 36 26 10 52 21 58 26 6 5 19 6 28 2 32 -12 15 6 -24 26
-22 11 -40 23 -40 25 0 8 5 6 64 -21z m-2728 -5 c10 -11 40 -36 66 -56 53 -38
65 -64 18 -36 -36 21 -129 113 -114 113 6 0 19 -9 30 -21z m634 1 c0 -5 -5
-10 -11 -10 -5 0 -7 5 -4 10 3 6 8 10 11 10 2 0 4 -4 4 -10z m585 -50 c25 -11
-1 -11 -35 0 -20 6 -21 8 -5 8 11 0 29 -3 40 -8z m-972 -62 c-11 -23 -11 -23
-18 4 -4 16 -4 36 0 45 6 16 8 16 18 -4 7 -16 7 -30 0 -45z m312 -19 c41 -6
75 -15 75 -20 0 -21 -147 -2 -174 23 -13 11 8 10 99 -3z m1651 -51 c24 -45 44
-137 33 -144 -5 -3 -10 2 -10 10 -2 19 -3 25 -14 51 -30 73 -35 89 -35 101 0
22 8 16 26 -18z m-1037 6 c10 -9 -45 -3 -59 6 -11 7 -5 8 20 4 19 -4 37 -8 39
-10z m174 -1 c-7 -2 -19 -2 -25 0 -7 3 -2 5 12 5 14 0 19 -2 13 -5z m-1064
-81 c15 -54 12 -139 -6 -146 -8 -3 -13 -22 -13 -46 0 -58 -16 -41 -19 19 -2
45 0 51 19 51 16 0 20 6 20 29 0 36 -15 48 -29 24 -8 -13 -10 4 -11 67 0 73 2
82 13 65 7 -11 19 -39 26 -63z m1822 -7 c25 -52 38 -65 82 -75 l32 -8 -31 -1
c-39 -1 -78 28 -93 71 -7 18 -17 41 -23 52 -7 13 -6 16 2 11 6 -3 20 -26 31
-50z m-56 -4 c-12 -10 -112 -24 -102 -14 4 4 26 10 50 14 63 10 62 10 52 0z
m-1417 -11 c10 0 12 -3 7 -9 -13 -12 -67 -2 -59 11 3 5 13 7 21 4 8 -3 22 -6
31 -6z m1232 -39 c-8 -5 -33 -12 -55 -15 l-40 -5 40 13 c48 17 79 21 55 7z
m-280 -55 c0 -7 3 -28 6 -45 8 -39 -10 -42 -24 -3 -5 15 -13 35 -17 45 -5 13
-2 17 14 17 12 0 21 -6 21 -14z m-240 0 c0 -1 -5 -17 -11 -34 -12 -34 -34 -34
-24 -1 8 23 12 23 -78 5 -65 -14 -215 -36 -238 -36 -5 0 -10 -15 -10 -32 l-1
-33 -7 30 c-8 34 2 71 17 68 6 -2 37 2 69 8 90 17 283 35 283 25z m-376 -292
c9 -3 16 -13 16 -22 0 -14 -2 -14 -17 0 -10 9 -25 18 -33 21 -12 4 -12 6 2 6
9 1 23 -2 32 -5z m-406 -27 c-16 -13 -28 -32 -28 -42 0 -11 -7 -42 -15 -69 -9
-31 -15 -90 -15 -158 0 -59 -4 -108 -9 -108 -5 0 -7 57 -5 128 2 70 4 141 4
158 0 17 7 37 16 45 15 12 14 14 -3 20 -10 4 -33 8 -52 8 -49 1 -32 12 41 26
91 18 97 17 66 -8z m352 3 c7 -13 21 -20 40 -20 23 0 30 -4 30 -20 0 -16 -7
-20 -35 -20 -29 0 -39 6 -53 30 -12 22 -24 30 -44 30 -16 0 -28 -5 -28 -11 0
-14 -42 -7 -47 8 -5 13 21 20 84 22 33 1 45 -3 53 -19z m-805 -70 c-3 -5 -11
-10 -16 -10 -6 0 -7 5 -4 10 3 6 11 10 16 10 6 0 7 -4 4 -10z m879 -621 c45
-21 39 -81 -9 -93 -30 -8 -33 -26 -5 -26 15 0 20 -7 20 -25 0 -21 -6 -26 -39
-31 -49 -8 -56 -13 -69 -49 -8 -22 -11 -25 -11 -10 -1 11 -3 64 -5 119 -2 67
-7 101 -16 106 -9 6 -2 10 21 13 66 8 88 7 113 -4z m43 -161 c-3 -7 -5 -2 -5
12 0 14 2 19 5 13 2 -7 2 -19 0 -25z m-93 -113 c-4 -8 -10 -15 -15 -15 -4 0
-6 7 -3 15 4 8 10 15 15 15 4 0 6 -7 3 -15z m1402 -1581 c2 -76 -1 -104 -9
-101 -25 8 -36 141 -17 193 17 43 23 20 26 -92z m140 -29 c18 -43 24 -73 24
-130 0 -89 -14 -97 -50 -32 -21 36 -25 58 -28 152 -3 104 -3 109 13 88 9 -13
27 -48 41 -78z m-191 -135 c3 -5 1 -10 -4 -10 -6 0 -11 5 -11 10 0 6 2 10 4
10 3 0 8 -4 11 -10z m-2170 -1330 c3 -5 15 -10 26 -10 22 0 49 -25 114 -104
57 -70 63 -83 22 -52 -20 15 -37 31 -39 34 -2 4 -23 23 -48 43 -44 34 -66 44
-165 70 -48 13 -49 14 -20 20 47 10 103 10 110 -1z m2225 -94 c0 -5 -106 -30
-125 -30 -18 -1 -179 -87 -226 -122 -66 -48 -72 -42 -14 11 89 81 213 132 348
144 9 0 17 -1 17 -3z"/>
<path d="M2428 6893 c7 -3 16 -2 19 1 4 3 -2 6 -13 5 -11 0 -14 -3 -6 -6z"/>
<path d="M2757 9271 c-20 -4 -40 -11 -44 -15 -4 -3 8 -21 25 -39 32 -32 39
-51 25 -60 -5 -2 -3 -3 3 -1 7 1 26 -15 43 -37 31 -37 64 -53 57 -26 -1 6 -1
9 2 4 2 -4 13 -12 23 -18 16 -8 32 -3 83 25 77 43 96 72 39 61 -20 -4 -54 -16
-74 -28 -29 -17 -41 -19 -50 -10 -9 9 -2 16 30 32 22 12 44 20 48 19 5 0 15 2
23 5 8 3 24 7 35 9 18 3 16 7 -15 41 -35 38 -35 38 -125 42 -49 2 -107 0 -128
-4z m140 -82 c-21 -11 -44 -18 -50 -16 -16 5 43 36 68 36 14 0 9 -6 -18 -20z"/>
<path d="M2934 9154 c-18 -14 -18 -14 6 -3 31 14 36 19 24 19 -6 0 -19 -7 -30
-16z"/>
<path d="M3070 9140 c8 -5 20 -10 25 -10 6 0 3 5 -5 10 -8 5 -19 10 -25 10 -5
0 -3 -5 5 -10z"/>
<path d="M3890 8572 c0 -5 5 -33 11 -63 10 -50 13 -54 37 -53 30 1 30 -1 19
72 -7 49 -9 52 -37 52 -17 0 -30 -4 -30 -8z"/>
<path d="M3921 8414 c0 -11 3 -14 6 -6 3 7 2 16 -1 19 -3 4 -6 -2 -5 -13z"/>
<path d="M3932 8320 c0 -14 2 -19 5 -12 2 6 2 18 0 25 -3 6 -5 1 -5 -13z"/>
<path d="M3930 8280 c0 -5 5 -10 11 -10 5 0 7 5 4 10 -3 6 -8 10 -11 10 -2 0
-4 -4 -4 -10z"/>
<path d="M4124 8098 c3 -13 5 -30 6 -38 0 -12 3 -11 11 3 11 19 3 57 -12 57
-5 0 -7 -10 -5 -22z"/>
<path d="M2330 7900 c-24 -8 -23 -8 8 -9 17 -1 32 4 32 9 0 11 -5 11 -40 0z"/>
<path d="M2245 7862 c-38 -15 -55 -28 -55 -44 0 -10 97 20 140 43 l35 18 -40
0 c-22 -1 -58 -8 -80 -17z"/>
<path d="M2280 7790 c0 -13 5 -18 15 -14 8 4 15 12 15 20 0 8 -7 14 -15 14 -8
0 -15 -9 -15 -20z"/>
<path d="M2269 7744 c-12 -14 -11 -16 5 -13 11 2 21 10 24 17 5 17 -13 15 -29
-4z"/>
<path d="M2218 7743 c7 -3 16 -2 19 1 4 3 -2 6 -13 5 -11 0 -14 -3 -6 -6z"/>
<path d="M4826 6735 c4 -8 8 -15 10 -15 2 0 4 7 4 15 0 8 -4 15 -10 15 -5 0
-7 -7 -4 -15z"/>
</g>
</svg>
